<svg viewBox="0 0 1024 1024" version="1.1" xmlns="http://www.w3.org/2000/svg" desc="Created with imagetracer.js version 1.2.6" ><path fill="currentColor" stroke="rgb(0,0,0)" stroke-width="1" opacity="1" d="M 504.5 231 Q 545 230 571.5 243 Q 604.3 257.3 626 282.5 Q 660.9 317.6 664 384.5 Q 663.1 418.6 652 442.5 Q 637.4 475.9 611.5 498 L 606 502.5 Q 614.5 511.5 627.5 516 Q 666.6 524.9 698.5 541 Q 727.4 556.1 748 579.5 Q 774.4 609.1 785 654.5 L 789 682.5 L 789 776.5 Q 786.5 785.5 779.5 790 L 772.5 793 L 251.5 793 Q 243.2 790.9 239 784.5 L 235 775.5 L 235 682.5 Q 243.3 604.3 290.5 565 Q 309.5 548.5 333.5 537 Q 359.7 524.7 391.5 518 L 418 504 L 413.5 498 L 397 482.5 Q 362.3 446.7 360 378.5 Q 361.6 345.1 373 321.5 Q 387 291 410.5 270 Q 443.9 236.9 504.5 231 Z M 500 275 Q 465 280 444 299 Q 412 323 404 372 Q 402 401 410 421 Q 420 445 436 461 Q 460 487 507 492 Q 559 491 586 463 Q 613 439 620 396 Q 622 370 616 353 Q 609 330 596 315 Q 580 294 555 283 Q 533 273 500 275 Z M 458 525 Q 446 539 430 548 L 408 558 L 357 574 Q 332 585 315 602 Q 291 625 282 662 L 278 692 L 278 749 L 280 750 L 342 750 L 343 749 L 343 685 L 348 675 L 359 669 Q 370 667 376 671 Q 383 676 386 686 L 386 750 L 387 750 L 638 750 L 638 686 L 641 679 Q 645 671 654 669 Q 669 667 675 674 L 681 686 L 681 749 L 683 750 L 745 750 L 746 749 L 746 693 L 741 658 Q 731 623 709 602 Q 691 585 668 574 L 617 558 L 597 549 Q 579 540 567 525 Q 547 533 521 535 Q 483 536 458 525 Z " /><path fill="var(--primary)" stroke="rgb(255,0,255)" stroke-width="1" opacity="1" d="M 613.5 269 L 625.5 282 L 613.5 269 Z " /><path fill="var(--primary)" stroke="rgb(255,0,255)" stroke-width="1" opacity="1" d="M 408.5 271 L 401.5 279 L 408.5 271 Z " /><path fill="var(--primary)" stroke="rgb(255,0,255)" stroke-width="1" opacity="1" d="M 467.5 284 L 469 284.5 L 458.5 290 L 459.5 288 L 467.5 284 Z " /><path fill="var(--primary)" stroke="rgb(255,0,255)" stroke-width="1" opacity="1" d="M 443.5 299 L 428.5 315 L 443.5 299 Z " /><path fill="var(--primary)" stroke="rgb(255,0,255)" stroke-width="1" opacity="1" d="M 580.5 299 L 595.5 315 L 580.5 299 Z " /><path fill="var(--primary)" stroke="rgb(255,0,255)" stroke-width="1" opacity="1" d="M 373.5 445 L 379 455.5 L 377 454.5 L 373.5 445 Z " /><path fill="var(--primary)" stroke="rgb(255,0,255)" stroke-width="1" opacity="1" d="M 650.5 445 L 651 446.5 L 644.5 458 L 645 456.5 L 650.5 445 Z " /><path fill="var(--primary)" stroke="rgb(255,0,255)" stroke-width="1" opacity="1" d="M 626.5 483 L 613.5 497 L 626.5 483 Z " /><path fill="var(--primary)" stroke="rgb(255,0,255)" stroke-width="1" opacity="1" d="M 398.5 484 L 410.5 497 L 398.5 484 Z " /><path fill="var(--primary)" stroke="rgb(255,0,255)" stroke-width="1" opacity="1" d="M 610.5 498 L 607 502.5 L 610.5 507 Q 601.5 502.5 610.5 498 Z " /><path fill="var(--primary)" stroke="rgb(255,0,255)" stroke-width="1" opacity="1" d="M 457.5 525 L 460 525.5 L 456 527.5 Q 446.5 583 409.5 611 L 386 633.5 Q 374 647.8 370 669 Q 354.1 666.9 348 675 L 343 684.5 L 343 748.5 L 341.5 750 L 279.5 750 L 278 748.5 L 278 691.5 L 282 661.5 Q 291.1 624.6 314.5 602 Q 332.3 584.8 356.5 574 L 407.5 558 L 429.5 548 Q 445.7 538.7 457.5 525 Z " /><path fill="var(--primary)" stroke="rgb(255,0,255)" stroke-width="1" opacity="1" d="M 568.5 527 Q 580.2 540.3 596.5 549 L 616.5 558 L 667.5 574 Q 691.4 584.6 709 601.5 Q 731.4 623.1 741 657.5 L 746 692.5 L 746 748.5 L 744.5 750 L 682.5 750 L 681 748.5 L 681 685.5 L 675 674 Q 668.9 667 654 669 Q 647.1 639.3 628 622 L 598 594.5 Q 573.9 569 568.5 527 Z " /><path fill="var(--primary)" stroke="rgb(255,0,255)" stroke-width="1" opacity="1" d="M 734.5 565 L 746.5 578 L 734.5 565 Z " /><path fill="var(--primary)" stroke="rgb(255,0,255)" stroke-width="1" opacity="1" d="M 288.5 566 L 278.5 577 L 288.5 566 Z " /><path fill="var(--primary)" stroke="rgb(255,0,255)" stroke-width="1" opacity="1" d="M 376.5 671 Q 384.1 674.9 386 684.5 L 385 684.5 Q 382.9 674.9 376.5 671 Z " /><path fill="var(--primary)" stroke="rgb(255,0,255)" stroke-width="1" opacity="1" d="M 386.5 686 L 387 749 L 636.5 749 L 637 748.5 L 637 686.5 L 638 686.5 L 638 749.5 L 637.5 750 L 386 750 L 386.5 686 Z " /><path fill="var(--primary)" stroke="rgb(255,0,255)" stroke-width="1" opacity="1" d="M 234.5 687 L 235 774.5 L 234 774.5 L 234.5 687 Z " /><path fill="var(--primary)" stroke="rgb(255,0,255)" stroke-width="1" opacity="1" d="M 789.5 687 L 790 774.5 L 789 774.5 L 789.5 687 Z " /><path fill="var(--primary)" stroke="rgb(255,0,255)" stroke-width="1" opacity="1" d="M 252.5 793 L 772 793.5 L 252.5 794 L 252.5 793 Z " /></svg>