<svg viewBox="0 0 1024 1024" version="1.1" xmlns="http://www.w3.org/2000/svg" desc="Created with imagetracer.js version 1.2.6" ><path fill="currentColor" stroke="rgb(0,0,0)" stroke-width="1" opacity="1" d="M 507.5 155 Q 516.8 153.7 521.5 157 Q 693.4 295.6 859 440.5 Q 862.3 445.2 861 454.5 L 853.5 464 Q 849.1 467.1 840.5 466 L 830.5 460 L 782 419 L 783 801.5 L 781 833.5 L 781 835.5 Q 780.8 846.3 773.5 850 L 768.5 852 Q 509.3 850.8 254.5 854 L 243 845.5 L 241 840.5 L 241 641.5 L 242 419 L 189.5 463 Q 185 467.1 175.5 466 L 165 458.5 Q 161.3 454.2 163 444.5 L 171.5 434 L 381.5 256 L 501.5 158 L 507.5 155 Z M 512 193 L 272 393 L 275 458 L 274 821 Q 509 818 749 819 L 751 712 L 749 570 L 749 441 L 752 394 Q 635 290 512 193 Z " /><path fill="currentColor" stroke="rgb(0,0,0)" stroke-width="1" opacity="1" d="M 504.5 435 Q 539.2 433.8 562.5 444 Q 594 457 615 480.5 Q 632.5 500 643 526.5 Q 652.8 550.7 651 586.5 Q 642.2 647.7 603.5 679 Q 586 694.5 562.5 704 Q 538.8 714.3 503.5 713 Q 437.4 704.6 405 662.5 Q 389.1 643.9 380 618.5 Q 371.5 596 373 563.5 Q 380.7 501.2 419.5 470 Q 449.6 440.1 504.5 435 Z M 506 468 Q 465 473 442 495 Q 412 519 406 567 Q 407 618 433 645 Q 457 674 505 680 Q 527 681 543 676 Q 563 669 579 657 Q 611 632 618 582 Q 619 560 614 546 Q 607 522 593 506 Q 576 486 551 475 Q 532 467 506 468 Z " /><path fill="var(--primary)" stroke="rgb(255,0,255)" stroke-width="1" opacity="1" d="M 273.5 407 L 274 421.5 L 273 421.5 L 273.5 407 Z " /><path fill="var(--primary)" stroke="rgb(255,0,255)" stroke-width="1" opacity="1" d="M 749.5 416 L 750 439.5 L 749 439.5 L 749.5 416 Z " /><path fill="var(--primary)" stroke="rgb(255,0,255)" stroke-width="1" opacity="1" d="M 240.5 419 L 242 419.5 L 242 640.5 L 241 640.5 L 240.5 420 L 236 423.5 L 240.5 419 Z " /><path fill="var(--primary)" stroke="rgb(255,0,255)" stroke-width="1" opacity="1" d="M 782 419 L 788 423.5 L 783 420.5 L 782.5 557 L 782 419 Z " /><path fill="var(--primary)" stroke="rgb(255,0,255)" stroke-width="1" opacity="1" d="M 274.5 429 L 275 456.5 L 274 456.5 L 274.5 429 Z " /><path fill="var(--primary)" stroke="rgb(255,0,255)" stroke-width="1" opacity="1" d="M 170.5 434 L 165 440.5 L 163.5 444 L 163 442.5 L 170.5 434 Z " /><path fill="var(--primary)" stroke="rgb(255,0,255)" stroke-width="1" opacity="1" d="M 201.5 452 L 194.5 460 L 201.5 452 Z " /><path fill="var(--primary)" stroke="rgb(255,0,255)" stroke-width="1" opacity="1" d="M 860.5 455 L 861 456.5 L 853.5 465 L 849.5 466 L 849.5 465 Q 856.6 464.1 859 458.5 L 860.5 455 Z " /><path fill="var(--primary)" stroke="rgb(255,0,255)" stroke-width="1" opacity="1" d="M 748.5 456 L 749 542.5 L 748 542.5 L 748.5 456 Z " /><path fill="var(--primary)" stroke="rgb(255,0,255)" stroke-width="1" opacity="1" d="M 505.5 468 Q 532.5 467 550.5 475 Q 576.2 485.8 593 505.5 Q 607 522 614 545.5 Q 619.1 560.4 618 581.5 Q 610.9 631.9 578.5 657 Q 563.3 669.3 542.5 676 Q 526.7 681.2 504.5 680 Q 456.9 674.1 433 644.5 Q 406.7 618.3 406 566.5 Q 411.9 518.9 441.5 495 Q 464.5 472.5 505.5 468 Z " /><path fill="var(--primary)" stroke="rgb(255,0,255)" stroke-width="1" opacity="1" d="M 275.5 470 L 276 670.5 L 275 670.5 L 275.5 470 Z " /><path fill="var(--primary)" stroke="rgb(255,0,255)" stroke-width="1" opacity="1" d="M 417.5 471 L 409.5 480 L 417.5 471 Z " /><path fill="var(--primary)" stroke="rgb(255,0,255)" stroke-width="1" opacity="1" d="M 606.5 471 L 613.5 479 L 606.5 471 Z " /><path fill="var(--primary)" stroke="rgb(255,0,255)" stroke-width="1" opacity="1" d="M 633.5 506 L 641 520.5 L 640 520.5 L 633.5 506 Z " /><path fill="var(--primary)" stroke="rgb(255,0,255)" stroke-width="1" opacity="1" d="M 651.5 566 L 652 583.5 L 651 583.5 L 651.5 566 Z " /><path fill="var(--primary)" stroke="rgb(255,0,255)" stroke-width="1" opacity="1" d="M 372.5 567 L 373 581.5 L 372 581.5 L 372.5 567 Z " /><path fill="var(--primary)" stroke="rgb(255,0,255)" stroke-width="1" opacity="1" d="M 749.5 570 L 750 654.5 L 749 654.5 L 749.5 570 Z " /><path fill="var(--primary)" stroke="rgb(255,0,255)" stroke-width="1" opacity="1" d="M 783.5 595 L 784 787.5 L 783 787.5 L 783.5 595 Z " /><path fill="var(--primary)" stroke="rgb(255,0,255)" stroke-width="1" opacity="1" d="M 640.5 628 L 641 629.5 L 633.5 643 L 634 641.5 L 640.5 628 Z " /><path fill="var(--primary)" stroke="rgb(255,0,255)" stroke-width="1" opacity="1" d="M 405.5 663 L 422.5 681 L 405.5 663 Z " /><path fill="var(--primary)" stroke="rgb(255,0,255)" stroke-width="1" opacity="1" d="M 617.5 665 L 605.5 678 L 617.5 665 Z " /><path fill="var(--primary)" stroke="rgb(255,0,255)" stroke-width="1" opacity="1" d="M 240.5 704 L 241 839.5 L 240 839.5 L 240.5 704 Z " /><path fill="var(--primary)" stroke="rgb(255,0,255)" stroke-width="1" opacity="1" d="M 274.5 704 L 275 807.5 L 274 807.5 L 274.5 704 Z " /><path fill="var(--primary)" stroke="rgb(255,0,255)" stroke-width="1" opacity="1" d="M 749.5 755 L 750 794.5 L 749 794.5 L 749.5 755 Z " /><path fill="var(--primary)" stroke="rgb(255,0,255)" stroke-width="1" opacity="1" d="M 782.5 802 L 783 825.5 L 782 825.5 L 782.5 802 Z " /><path fill="var(--primary)" stroke="rgb(255,0,255)" stroke-width="1" opacity="1" d="M 748.5 806 L 749 819 L 557 818.5 L 748 818 L 748.5 806 Z " /><path fill="var(--primary)" stroke="rgb(255,0,255)" stroke-width="1" opacity="1" d="M 341.5 819 L 496 819.5 L 341.5 820 L 341.5 819 Z " /><path fill="var(--primary)" stroke="rgb(255,0,255)" stroke-width="1" opacity="1" d="M 274.5 820 L 314 820.5 L 274.5 821 L 274.5 820 Z " /><path fill="var(--primary)" stroke="rgb(255,0,255)" stroke-width="1" opacity="1" d="M 780.5 841 L 781 842.5 L 773.5 851 L 772 850.5 L 779 844.5 L 780.5 841 Z " /><path fill="var(--primary)" stroke="rgb(255,0,255)" stroke-width="1" opacity="1" d="M 490.5 852 L 768 852.5 L 490.5 853 L 490.5 852 Z " /><path fill="var(--primary)" stroke="rgb(255,0,255)" stroke-width="1" opacity="1" d="M 317.5 853 L 423 853.5 L 317.5 854 L 317.5 853 Z " /><path fill="var(--primary)" stroke="rgb(255,0,255)" stroke-width="1" opacity="1" d="M 256.5 854 L 300 854.5 L 256.5 855 L 256.5 854 Z " /></svg>