<svg viewBox="0 0 1024 1024" version="1.1" xmlns="http://www.w3.org/2000/svg" desc="Created with imagetracer.js version 1.2.6" ><path fill="currentColor" stroke="rgb(0,0,0)" stroke-width="1" opacity="1" d="M 408.5 169 Q 437.5 167.5 461.5 171 Q 494.4 176.2 521.5 187 Q 577.7 209.8 615 251.5 Q 647.2 284.8 664 333.5 Q 679.4 375.6 677 435.5 Q 669.8 504.8 639 550.5 L 642.5 555 L 825 735 L 830.5 742 L 839 749.5 L 842.5 754 L 850 760.5 L 853 767.5 L 853 830.5 L 845.5 841 L 838.5 844 L 743.5 844 L 736.5 841 L 539.5 645 Q 491.6 676.1 414.5 678 Q 358.1 675.9 318.5 657 Q 271.3 635.7 238 600.5 Q 201.9 564.1 182 511.5 Q 173.9 488.6 170 461.5 Q 166.7 438.8 168 411.5 Q 172.4 353.4 194 312.5 Q 217.4 265.9 254.5 233 Q 282.4 207.9 318.5 191 Q 356.5 173 408.5 169 Z M 406 202 Q 324 212 277 257 Q 240 289 219 337 Q 204 369 201 415 Q 200 462 212 497 Q 228 542 258 574 Q 287 606 330 626 Q 361 641 405 645 L 443 644 L 487 634 Q 533 617 567 587 Q 604 554 626 506 Q 641 474 644 432 Q 646 385 635 352 Q 621 309 595 279 Q 563 241 516 220 Q 491 209 461 204 Q 436 200 406 202 Z M 620 578 L 608 592 L 573 623 L 569 628 L 706 764 L 708 767 L 724 782 L 726 785 L 740 798 L 746 805 L 754 811 L 820 811 L 820 778 L 696 653 L 694 652 L 672 630 L 660 618 L 656 614 L 626 583 L 620 578 Z " /><path fill="var(--primary)" stroke="rgb(255,0,255)" stroke-width="1" opacity="1" d="M 412.5 168 L 439 168.5 L 412.5 169 L 412.5 168 Z " /><path fill="var(--primary)" stroke="rgb(255,0,255)" stroke-width="1" opacity="1" d="M 348.5 179 L 351 179.5 L 337.5 184 L 337.5 183 L 348.5 179 Z " /><path fill="var(--primary)" stroke="rgb(255,0,255)" stroke-width="1" opacity="1" d="M 540.5 195 L 552 201.5 L 550.5 201 Q 541.7 199.6 540.5 195 Z " /><path fill="var(--primary)" stroke="rgb(255,0,255)" stroke-width="1" opacity="1" d="M 405.5 202 L 421 202.5 L 405.5 203 L 405.5 202 Z " /><path fill="var(--primary)" stroke="rgb(255,0,255)" stroke-width="1" opacity="1" d="M 429.5 202 L 445 202.5 L 429.5 203 L 429.5 202 Z " /><path fill="var(--primary)" stroke="rgb(255,0,255)" stroke-width="1" opacity="1" d="M 253.5 233 L 233.5 254 L 253.5 233 Z " /><path fill="var(--primary)" stroke="rgb(255,0,255)" stroke-width="1" opacity="1" d="M 600.5 236 L 614.5 251 L 600.5 236 Z " /><path fill="var(--primary)" stroke="rgb(255,0,255)" stroke-width="1" opacity="1" d="M 404.5 247 L 443.5 248 Q 469.6 251.9 490.5 261 Q 527.9 277.6 553 306.5 Q 574.9 330.6 587 364.5 Q 598.1 392.9 597 433.5 Q 588.7 509.2 544.5 549 Q 515.4 578.4 471.5 593 L 435.5 600 L 404.5 600 Q 326.3 588.7 286 539.5 Q 263.5 514 251 478.5 Q 240.3 449.7 243 407.5 Q 254.3 328.8 304.5 289 Q 341.4 254.9 404.5 247 Z " /><path fill="var(--primary)" stroke="rgb(255,0,255)" stroke-width="1" opacity="1" d="M 561.5 247 L 570 254.5 L 565.5 251 L 561.5 247 Z " /><path fill="var(--primary)" stroke="rgb(255,0,255)" stroke-width="1" opacity="1" d="M 615.5 252 L 622.5 260 L 615.5 252 Z " /><path fill="var(--primary)" stroke="rgb(255,0,255)" stroke-width="1" opacity="1" d="M 276.5 257 L 258.5 276 L 276.5 257 Z " /><path fill="var(--primary)" stroke="rgb(255,0,255)" stroke-width="1" opacity="1" d="M 623.5 261 L 631 269.5 L 627 266.5 L 623.5 261 Z " /><path fill="var(--primary)" stroke="rgb(255,0,255)" stroke-width="1" opacity="1" d="M 584.5 268 L 594.5 279 L 584.5 268 Z " /><path fill="var(--primary)" stroke="rgb(255,0,255)" stroke-width="1" opacity="1" d="M 646.5 294 L 652 303.5 L 650 302.5 L 646.5 294 Z " /><path fill="var(--primary)" stroke="rgb(255,0,255)" stroke-width="1" opacity="1" d="M 182.5 339 L 183 340.5 L 178.5 354 L 178 350.5 L 182.5 339 Z " /><path fill="var(--primary)" stroke="rgb(255,0,255)" stroke-width="1" opacity="1" d="M 643.5 403 L 644 431.5 L 643 431.5 L 643.5 403 Z " /><path fill="var(--primary)" stroke="rgb(255,0,255)" stroke-width="1" opacity="1" d="M 677.5 404 L 678 431.5 L 677 431.5 L 677.5 404 Z " /><path fill="var(--primary)" stroke="rgb(255,0,255)" stroke-width="1" opacity="1" d="M 201.5 414 L 202 436.5 L 201 436.5 L 201.5 414 Z " /><path fill="var(--primary)" stroke="rgb(255,0,255)" stroke-width="1" opacity="1" d="M 167.5 416 L 168 435.5 L 167 435.5 L 167.5 416 Z " /><path fill="var(--primary)" stroke="rgb(255,0,255)" stroke-width="1" opacity="1" d="M 219.5 513 L 229 531.5 L 227 530.5 L 219.5 513 Z " /><path fill="var(--primary)" stroke="rgb(255,0,255)" stroke-width="1" opacity="1" d="M 652.5 525 L 653 526.5 L 645.5 540 L 646 538.5 L 652.5 525 Z " /><path fill="var(--primary)" stroke="rgb(255,0,255)" stroke-width="1" opacity="1" d="M 190.5 531 L 197 543.5 L 195 542.5 L 190.5 531 Z " /><path fill="var(--primary)" stroke="rgb(255,0,255)" stroke-width="1" opacity="1" d="M 233.5 540 L 241 550.5 L 238 548.5 L 233.5 540 Z " /><path fill="var(--primary)" stroke="rgb(255,0,255)" stroke-width="1" opacity="1" d="M 654.5 565 L 823.5 735 L 654.5 565 Z " /><path fill="var(--primary)" stroke="rgb(255,0,255)" stroke-width="1" opacity="1" d="M 584.5 568 L 566.5 587 L 584.5 568 Z " /><path fill="var(--primary)" stroke="rgb(255,0,255)" stroke-width="1" opacity="1" d="M 258.5 573 L 271.5 587 L 258.5 573 Z " /><path fill="var(--primary)" stroke="rgb(255,0,255)" stroke-width="1" opacity="1" d="M 629.5 588 L 639.5 599 L 629.5 588 Z " /><path fill="var(--primary)" stroke="rgb(255,0,255)" stroke-width="1" opacity="1" d="M 228.5 590 L 237.5 600 L 228.5 590 Z " /><path fill="var(--primary)" stroke="rgb(255,0,255)" stroke-width="1" opacity="1" d="M 606.5 593 L 594.5 606 L 606.5 593 Z " /><path fill="var(--primary)" stroke="rgb(255,0,255)" stroke-width="1" opacity="1" d="M 240.5 602 L 254.5 617 L 240.5 602 Z " /><path fill="var(--primary)" stroke="rgb(255,0,255)" stroke-width="1" opacity="1" d="M 591.5 607 L 584.5 615 L 591.5 607 Z " /><path fill="var(--primary)" stroke="rgb(255,0,255)" stroke-width="1" opacity="1" d="M 314.5 617 L 331 625.5 L 329.5 626 L 315.5 619 L 314.5 617 Z " /><path fill="var(--primary)" stroke="rgb(255,0,255)" stroke-width="1" opacity="1" d="M 672.5 630 L 693.5 652 L 672.5 630 Z " /><path fill="var(--primary)" stroke="rgb(255,0,255)" stroke-width="1" opacity="1" d="M 573.5 631 L 702.5 761 L 573.5 631 Z " /><path fill="var(--primary)" stroke="rgb(255,0,255)" stroke-width="1" opacity="1" d="M 404.5 644 L 431 644.5 L 404.5 645 L 404.5 644 Z " /><path fill="var(--primary)" stroke="rgb(255,0,255)" stroke-width="1" opacity="1" d="M 539.5 645 L 740 842.5 L 738.5 843 L 539.5 646 L 536.5 648 L 537.5 646 L 539.5 645 Z " /><path fill="var(--primary)" stroke="rgb(255,0,255)" stroke-width="1" opacity="1" d="M 297.5 646 L 318 656.5 L 316.5 657 L 298.5 648 L 297.5 646 Z " /><path fill="var(--primary)" stroke="rgb(255,0,255)" stroke-width="1" opacity="1" d="M 695.5 653 L 819.5 778 L 695.5 653 Z " /><path fill="var(--primary)" stroke="rgb(255,0,255)" stroke-width="1" opacity="1" d="M 398.5 677 L 414 677.5 L 398.5 678 L 398.5 677 Z " /><path fill="var(--primary)" stroke="rgb(255,0,255)" stroke-width="1" opacity="1" d="M 421.5 677 L 437 677.5 L 421.5 678 L 421.5 677 Z " /><path fill="var(--primary)" stroke="rgb(255,0,255)" stroke-width="1" opacity="1" d="M 708.5 766 L 718.5 777 L 708.5 766 Z " /><path fill="var(--primary)" stroke="rgb(255,0,255)" stroke-width="1" opacity="1" d="M 853.5 768 L 854 829.5 L 853 829.5 L 853.5 768 Z " /><path fill="var(--primary)" stroke="rgb(255,0,255)" stroke-width="1" opacity="1" d="M 850.5 836 L 845.5 842 L 842.5 843 L 842.5 842 L 850.5 836 Z " /></svg>