<svg viewBox="0 0 1024 1024" version="1.1" xmlns="http://www.w3.org/2000/svg" desc="Created with imagetracer.js version 1.2.6" ><path fill="currentColor" stroke="rgb(0,0,0)" stroke-width="1" opacity="1" d="M 506.5 128 Q 565.8 129.2 591 164.5 Q 605.5 182 612 207.5 L 614 220.5 L 614 266.5 L 615.5 268 Q 671.8 287.7 707 328.5 Q 742.2 366.8 759 423.5 Q 766.4 448.6 768 479.5 L 768 635.5 L 770 649.5 Q 779.3 693.7 808.5 718 L 841 743.5 L 845 754.5 L 845 797.5 Q 843 809.5 834.5 815 L 825.5 819 L 611.5 819 L 610 820.5 Q 602.2 852.2 580.5 870 Q 555.5 895 506.5 896 Q 460.5 891 437 863.5 Q 420.2 845.8 412.5 819 L 198.5 819 Q 188.3 816.3 183 808.5 L 179 796.5 L 179 754.5 Q 181 742.5 189.5 737 Q 209.8 725.3 225 708.5 Q 250 682.5 256 637.5 L 256 479.5 Q 257.6 448.6 265 423.5 Q 286 353.5 334.5 311 Q 366.2 282.7 410 266.5 L 410 221.5 L 413 203.5 Q 423.1 169.6 447.5 150 Q 469.3 131.3 506.5 128 Z M 506 179 Q 486 183 475 194 Q 465 205 461 223 L 461 308 Q 403 317 369 351 Q 330 384 314 440 L 307 482 L 307 638 L 305 657 Q 296 706 268 738 L 235 768 L 306 768 Q 339 727 354 668 L 359 619 L 359 484 Q 365 437 390 410 Q 411 384 443 370 Q 465 359 498 358 L 541 359 L 562 363 Q 598 373 622 396 Q 649 421 661 462 L 665 483 L 665 610 Q 665 638 669 663 Q 674 689 684 711 Q 698 742 718 768 L 788 768 L 776 757 Q 740 728 724 679 L 717 637 L 717 481 L 714 457 Q 703 402 672 368 Q 634 321 563 308 L 563 222 Q 559 206 550 196 Q 537 178 506 179 Z " /><path fill="var(--primary)" stroke="rgb(255,0,255)" stroke-width="1" opacity="1" d="M 446.5 150 L 434.5 163 L 446.5 150 Z " /><path fill="var(--primary)" stroke="rgb(255,0,255)" stroke-width="1" opacity="1" d="M 577.5 150 L 590.5 164 L 577.5 150 Z " /><path fill="var(--primary)" stroke="rgb(255,0,255)" stroke-width="1" opacity="1" d="M 423.5 178 L 423 179.5 L 418.5 189 L 418 187.5 L 423.5 178 Z " /><path fill="var(--primary)" stroke="rgb(255,0,255)" stroke-width="1" opacity="1" d="M 505.5 179 Q 537 178 550 195.5 Q 559.4 205.6 563 221.5 L 563 308 L 566 308.5 L 564 313.5 L 564 335.5 L 565 345.5 L 565 347.5 L 564 364 L 540.5 359 L 497.5 358 Q 475.9 358.7 460 364 L 459 348.5 L 460 345.5 L 459 339.5 L 460 315.5 L 458 308.5 L 461 308 L 461 222.5 Q 464.8 204.6 475 194 Q 485.9 182.6 505.5 179 Z " /><path fill="var(--primary)" stroke="rgb(255,0,255)" stroke-width="1" opacity="1" d="M 614.5 223 L 615 267 L 617 267.5 L 615.5 268 L 614 266.5 L 614.5 223 Z " /><path fill="var(--primary)" stroke="rgb(255,0,255)" stroke-width="1" opacity="1" d="M 409.5 224 L 410 266.5 L 407.5 268 L 407.5 267 L 409 266.5 L 409.5 224 Z " /><path fill="var(--primary)" stroke="rgb(255,0,255)" stroke-width="1" opacity="1" d="M 332.5 312 L 318.5 327 L 332.5 312 Z " /><path fill="var(--primary)" stroke="rgb(255,0,255)" stroke-width="1" opacity="1" d="M 691.5 312 L 706.5 328 L 691.5 312 Z " /><path fill="var(--primary)" stroke="rgb(255,0,255)" stroke-width="1" opacity="1" d="M 414.5 321 L 416 321.5 L 401.5 329 L 402.5 327 L 414.5 321 Z " /><path fill="var(--primary)" stroke="rgb(255,0,255)" stroke-width="1" opacity="1" d="M 721.5 346 L 728 354.5 L 725 352.5 L 721.5 346 Z " /><path fill="var(--primary)" stroke="rgb(255,0,255)" stroke-width="1" opacity="1" d="M 654.5 350 L 671.5 368 L 654.5 350 Z " /><path fill="var(--primary)" stroke="rgb(255,0,255)" stroke-width="1" opacity="1" d="M 368.5 351 L 353.5 367 L 368.5 351 Z " /><path fill="var(--primary)" stroke="rgb(255,0,255)" stroke-width="1" opacity="1" d="M 584.5 371 L 595 376.5 L 593.5 376 L 584.5 371 Z " /><path fill="var(--primary)" stroke="rgb(255,0,255)" stroke-width="1" opacity="1" d="M 737.5 371 L 747 389.5 L 746 389.5 L 737.5 371 Z " /><path fill="var(--primary)" stroke="rgb(255,0,255)" stroke-width="1" opacity="1" d="M 285.5 373 L 285 374.5 L 280.5 384 L 280 382.5 L 285.5 373 Z " /><path fill="var(--primary)" stroke="rgb(255,0,255)" stroke-width="1" opacity="1" d="M 407.5 391 L 391.5 408 L 407.5 391 Z " /><path fill="var(--primary)" stroke="rgb(255,0,255)" stroke-width="1" opacity="1" d="M 692.5 398 L 699 410.5 L 698 410.5 L 692.5 398 Z " /><path fill="var(--primary)" stroke="rgb(255,0,255)" stroke-width="1" opacity="1" d="M 626.5 401 L 633.5 409 L 626.5 401 Z " /><path fill="var(--primary)" stroke="rgb(255,0,255)" stroke-width="1" opacity="1" d="M 716.5 480 L 717 631.5 L 716 631.5 L 716.5 480 Z " /><path fill="var(--primary)" stroke="rgb(255,0,255)" stroke-width="1" opacity="1" d="M 307.5 481 L 308 630.5 L 307 630.5 L 307.5 481 Z " /><path fill="var(--primary)" stroke="rgb(255,0,255)" stroke-width="1" opacity="1" d="M 358.5 485 L 359 618.5 L 358 618.5 L 358.5 485 Z " /><path fill="var(--primary)" stroke="rgb(255,0,255)" stroke-width="1" opacity="1" d="M 665.5 485 L 666 609.5 L 665 609.5 L 665.5 485 Z " /><path fill="var(--primary)" stroke="rgb(255,0,255)" stroke-width="1" opacity="1" d="M 224.5 708 L 214.5 719 L 224.5 708 Z " /><path fill="var(--primary)" stroke="rgb(255,0,255)" stroke-width="1" opacity="1" d="M 801.5 710 L 808.5 718 L 801.5 710 Z " /><path fill="var(--primary)" stroke="rgb(255,0,255)" stroke-width="1" opacity="1" d="M 822.5 728 L 833 735.5 L 831.5 735 L 822.5 728 Z " /><path fill="var(--primary)" stroke="rgb(255,0,255)" stroke-width="1" opacity="1" d="M 191.5 735 L 190.5 737 L 183.5 743 L 189.5 736 L 191.5 735 Z " /><path fill="var(--primary)" stroke="rgb(255,0,255)" stroke-width="1" opacity="1" d="M 756.5 738 L 773.5 756 L 756.5 738 Z " /><path fill="var(--primary)" stroke="rgb(255,0,255)" stroke-width="1" opacity="1" d="M 266.5 739 L 250.5 756 L 266.5 739 Z " /><path fill="var(--primary)" stroke="rgb(255,0,255)" stroke-width="1" opacity="1" d="M 840.5 809 L 834.5 816 L 832.5 817 L 833.5 815 L 840.5 809 Z " /><path fill="var(--primary)" stroke="rgb(255,0,255)" stroke-width="1" opacity="1" d="M 200.5 819 L 412.5 819 L 414 820.5 L 413.5 822 L 413 820 L 200.5 820 L 200.5 819 Z " /><path fill="var(--primary)" stroke="rgb(255,0,255)" stroke-width="1" opacity="1" d="M 611.5 819 L 824 819.5 L 611 820 L 610.5 822 L 610 820.5 L 611.5 819 Z " /></svg>